<svg width="32" height="32" viewBox="0 0 32 32" fill="none" xmlns="http://www.w3.org/2000/svg">
<path d="M23.4343 16.8511C23.4462 15.8284 23.7177 14.8255 24.2233 13.9364C24.7289 13.0473 25.452 12.3012 26.3249 11.7681C25.7698 10.9769 25.0381 10.3259 24.1877 9.86669C23.3373 9.40748 22.3916 9.15268 21.4256 9.12249C19.3802 8.90202 17.3837 10.3473 16.3304 10.3473C15.277 10.3473 13.648 9.12249 11.9088 9.12249C10.785 9.15905 9.6899 9.48632 8.73034 10.0724C7.77078 10.6584 6.97954 11.4832 6.43383 12.4662C4.11892 16.6184 5.83367 22.6078 8.09959 25.9638C9.23867 27.5928 10.5492 29.4055 12.3007 29.332C14.0522 29.2585 14.6279 28.2542 16.6856 28.2542C18.7433 28.2542 19.3067 29.332 21.0827 29.2953C22.8587 29.2585 24.059 27.6663 25.1491 26.025C25.9672 24.8706 26.5957 23.5929 27.0108 22.2403C25.9512 21.7927 25.0469 21.0429 24.4108 20.0844C23.7747 19.126 23.4351 18.0014 23.4343 16.8511Z" fill="white"/>
<path d="M20.0414 6.94161C21.0346 5.74853 21.5225 4.21463 21.4009 2.66699C19.8827 2.83085 18.4805 3.55599 17.4692 4.70019C16.9773 5.26067 16.6008 5.91265 16.3612 6.61883C16.1216 7.325 16.0237 8.0715 16.0729 8.81559C16.833 8.82308 17.5848 8.65837 18.2721 8.33382C18.9594 8.00926 19.5643 7.5333 20.0414 6.94161Z" fill="white"/>
</svg>
