<svg width="32" height="32" viewBox="0 0 32 32" fill="none" xmlns="http://www.w3.org/2000/svg">
<path d="M4.18215 3.58183L16.554 15.9536L4.27018 28.5992C4.25804 28.5784 4.2464 28.5572 4.23527 28.5359C4.20998 28.4879 4.1862 28.4388 4.16444 28.3887C4.03898 28.0983 3.98283 27.7796 4.00458 27.4584V4.54051C3.98637 4.20864 4.04859 3.88031 4.18215 3.58183Z" fill="white"/>
<path d="M4.89092 2.82551C4.9324 2.80577 4.9749 2.78857 5.0179 2.77239C5.18738 2.70864 5.36798 2.67323 5.55213 2.66766C5.94471 2.65653 6.32818 2.78402 6.63577 3.02736L21.1137 11.2604L17.2759 15.2105L4.89092 2.82551Z" fill="white"/>
<path d="M22.039 11.7951L18.0089 15.9435L22.1968 20.1314L26.8293 17.5017C28.2798 16.673 28.2798 15.3258 26.8293 14.5073L22.039 11.7951Z" fill="white"/>
<path d="M21.2573 20.657L17.287 16.6867L5.08316 29.2497C5.23291 29.2988 5.39024 29.3272 5.55061 29.3327C5.94218 29.3459 6.32616 29.2214 6.63577 28.9811L21.2573 20.657Z" fill="white"/>
</svg>
